<svg width="27" height="27" viewBox="0 0 27 27" fill="none" xmlns="http://www.w3.org/2000/svg">
<path d="M13.4696 4.59737C15.9408 4.59737 18.0474 5.46836 19.7894 7.21035C21.5313 8.95234 22.4023 11.0589 22.4023 13.5301C22.4023 16.0013 21.5313 18.1079 19.7894 19.8499C18.0474 21.5919 15.9408 22.4629 13.4696 22.4629C10.9984 22.4629 8.89182 21.5919 7.14983 19.8499C5.40784 18.1079 4.53685 16.0013 4.53685 13.5301C4.53685 11.0589 5.40784 8.95234 7.14983 7.21035C8.89182 5.46836 10.9984 4.59737 13.4696 4.59737ZM21.0047 13.5301C21.025 11.4438 20.2958 9.66128 18.8171 8.18262C17.3384 6.70396 15.5458 5.96463 13.4392 5.96463C11.3731 5.96463 9.60076 6.70396 8.1221 8.18262C6.64344 9.66128 5.89398 11.4438 5.87372 13.5301C5.89398 15.6165 6.64344 17.3989 8.1221 18.8776C9.60076 20.3563 11.3731 21.0956 13.4392 21.0956C15.5458 21.0956 17.3384 20.3563 18.8171 18.8776C20.2958 17.3989 21.025 15.6165 21.0047 13.5301ZM15.9003 10.1272L16.8725 11.0994L14.4419 13.5301L16.8725 15.9608L15.9003 16.9331L13.4696 14.5024L11.0389 16.9331L10.0666 15.9608L12.4973 13.5301L10.0666 11.0994L11.0389 10.1272L13.4696 12.5578L15.9003 10.1272Z" fill="#778CA2"/>
</svg>
