<svg width="14" height="15" viewBox="0 0 14 15" fill="none" xmlns="http://www.w3.org/2000/svg">
<path d="M5.80469 1.42969C6.13281 1.10156 6.53125 0.9375 7 0.9375C7.46875 0.9375 7.86719 1.10156 8.19531 1.42969C8.52344 1.75781 8.6875 2.15625 8.6875 2.625C8.6875 3.09375 8.52344 3.49219 8.19531 3.82031C7.86719 4.14844 7.46875 4.3125 7 4.3125C6.53125 4.3125 6.13281 4.14844 5.80469 3.82031C5.47656 3.49219 5.3125 3.09375 5.3125 2.625C5.3125 2.15625 5.47656 1.75781 5.80469 1.42969ZM2.00781 3.29297C2.28906 3.01172 2.62891 2.87109 3.02734 2.87109C3.42578 2.87109 3.75391 3.01172 4.01172 3.29297C4.29297 3.55078 4.43359 3.87891 4.43359 4.27734C4.43359 4.67578 4.29297 5.01562 4.01172 5.29688C3.75391 5.55469 3.42578 5.68359 3.02734 5.68359C2.62891 5.68359 2.28906 5.55469 2.00781 5.29688C1.75 5.01562 1.62109 4.67578 1.62109 4.27734C1.62109 3.87891 1.75 3.55078 2.00781 3.29297ZM10.5508 3.89062C10.668 3.77344 10.8086 3.71484 10.9727 3.71484C11.1367 3.71484 11.2656 3.77344 11.3594 3.89062C11.4766 3.98438 11.5352 4.11328 11.5352 4.27734C11.5352 4.44141 11.4766 4.58203 11.3594 4.69922C11.2656 4.79297 11.1367 4.83984 10.9727 4.83984C10.8086 4.83984 10.668 4.79297 10.5508 4.69922C10.457 4.58203 10.4102 4.44141 10.4102 4.27734C10.4102 4.11328 10.457 3.98438 10.5508 3.89062ZM0.460938 7.37109C0.71875 7.11328 1.02344 6.98438 1.375 6.98438C1.72656 6.98438 2.01953 7.11328 2.25391 7.37109C2.51172 7.60547 2.64062 7.89844 2.64062 8.25C2.64062 8.60156 2.51172 8.90625 2.25391 9.16406C2.01953 9.39844 1.72656 9.51562 1.375 9.51562C1.02344 9.51562 0.71875 9.39844 0.460938 9.16406C0.226562 8.90625 0.109375 8.60156 0.109375 8.25C0.109375 7.89844 0.226562 7.60547 0.460938 7.37109ZM12.1328 7.75781C12.2734 7.61719 12.4375 7.54688 12.625 7.54688C12.8125 7.54688 12.9766 7.61719 13.1172 7.75781C13.2578 7.89844 13.3281 8.0625 13.3281 8.25C13.3281 8.4375 13.2578 8.60156 13.1172 8.74219C12.9766 8.88281 12.8125 8.95312 12.625 8.95312C12.4375 8.95312 12.2734 8.88281 12.1328 8.74219C11.9922 8.60156 11.9219 8.4375 11.9219 8.25C11.9219 8.0625 11.9922 7.89844 12.1328 7.75781ZM2.21875 11.4492C2.45312 11.2148 2.72266 11.0977 3.02734 11.0977C3.33203 11.0977 3.58984 11.2148 3.80078 11.4492C4.03516 11.6602 4.15234 11.918 4.15234 12.2227C4.15234 12.5273 4.03516 12.7969 3.80078 13.0312C3.58984 13.2422 3.33203 13.3477 3.02734 13.3477C2.72266 13.3477 2.45312 13.2422 2.21875 13.0312C2.00781 12.7969 1.90234 12.5273 1.90234 12.2227C1.90234 11.918 2.00781 11.6602 2.21875 11.4492ZM10.375 11.625C10.5391 11.4609 10.7383 11.3789 10.9727 11.3789C11.207 11.3789 11.4062 11.4609 11.5703 11.625C11.7344 11.7891 11.8164 11.9883 11.8164 12.2227C11.8164 12.457 11.7344 12.6562 11.5703 12.8203C11.4062 12.9844 11.207 13.0664 10.9727 13.0664C10.7383 13.0664 10.5391 12.9844 10.375 12.8203C10.2109 12.6562 10.1289 12.457 10.1289 12.2227C10.1289 11.9883 10.2109 11.7891 10.375 11.625ZM6.29688 13.1719C6.48438 12.9844 6.71875 12.8906 7 12.8906C7.28125 12.8906 7.51562 12.9844 7.70312 13.1719C7.89062 13.3594 7.98438 13.5938 7.98438 13.875C7.98438 14.1562 7.89062 14.3906 7.70312 14.5781C7.51562 14.7656 7.28125 14.8594 7 14.8594C6.71875 14.8594 6.48438 14.7656 6.29688 14.5781C6.10938 14.3906 6.01562 14.1562 6.01562 13.875C6.01562 13.5938 6.10938 13.3594 6.29688 13.1719Z" fill="#778CA2"/>
</svg>
