<svg width="60" height="60" viewBox="0 0 60 60" fill="none" xmlns="http://www.w3.org/2000/svg">
<g clip-path="url(#clip0_32_23870)">
<g opacity="0.15">
<circle cx="30" cy="30" r="30" fill="#D8D8D8"/>
<mask id="mask0_32_23870" style="mask-type:luminance" maskUnits="userSpaceOnUse" x="0" y="0" width="60" height="60">
<circle cx="30" cy="30" r="30" fill="white"/>
</mask>
<g mask="url(#mask0_32_23870)">
<rect x="-3" y="-6" width="63" height="70" fill="#FFAB2B"/>
</g>
</g>
<circle cx="30" cy="30" r="24" fill="#D8D8D8"/>
<mask id="mask1_32_23870" style="mask-type:luminance" maskUnits="userSpaceOnUse" x="6" y="6" width="48" height="48">
<circle cx="30" cy="30" r="24" fill="white"/>
</mask>
<g mask="url(#mask1_32_23870)">
<rect x="3.6001" y="1.2" width="50.4" height="56" fill="#FFAB2B"/>
</g>
<path d="M21.5781 24.7656C22.3802 23.9635 23.3542 23.5625 24.5 23.5625C25.6458 23.5625 26.6198 23.9635 27.4219 24.7656C28.224 25.5677 28.625 26.5417 28.625 27.6875C28.625 29.0911 28.0521 30.2083 26.9062 31.0391C27.9661 31.5547 28.7682 32.2995 29.3125 33.2734C29.8568 32.2995 30.6589 31.5547 31.7188 31.0391C30.5729 30.2083 30 29.0911 30 27.6875C30 26.5417 30.401 25.5677 31.2031 24.7656C32.0052 23.9635 32.9792 23.5625 34.125 23.5625C35.2708 23.5625 36.2448 23.9635 37.0469 24.7656C37.849 25.5677 38.25 26.5417 38.25 27.6875C38.25 29.0911 37.6771 30.2083 36.5312 31.0391C37.4766 31.4974 38.2214 32.1706 38.7656 33.0586C39.3385 33.918 39.625 34.8776 39.625 35.9375H38.25C38.25 34.7917 37.849 33.8177 37.0469 33.0156C36.2448 32.2135 35.2708 31.8125 34.125 31.8125C32.9792 31.8125 32.0052 32.2135 31.2031 33.0156C30.401 33.8177 30 34.7917 30 35.9375H28.625C28.625 34.7917 28.224 33.8177 27.4219 33.0156C26.6198 32.2135 25.6458 31.8125 24.5 31.8125C23.3542 31.8125 22.3802 32.2135 21.5781 33.0156C20.776 33.8177 20.375 34.7917 20.375 35.9375H19C19 34.8776 19.2721 33.918 19.8164 33.0586C20.3893 32.1706 21.1484 31.4974 22.0938 31.0391C20.9479 30.2083 20.375 29.0911 20.375 27.6875C20.375 26.5417 20.776 25.5677 21.5781 24.7656ZM26.4336 25.7539C25.918 25.2096 25.2734 24.9375 24.5 24.9375C23.7266 24.9375 23.0677 25.2096 22.5234 25.7539C22.0078 26.2695 21.75 26.9141 21.75 27.6875C21.75 28.4609 22.0078 29.1198 22.5234 29.6641C23.0677 30.1797 23.7266 30.4375 24.5 30.4375C25.2734 30.4375 25.918 30.1797 26.4336 29.6641C26.9779 29.1198 27.25 28.4609 27.25 27.6875C27.25 26.9141 26.9779 26.2695 26.4336 25.7539ZM36.0586 25.7539C35.543 25.2096 34.8984 24.9375 34.125 24.9375C33.3516 24.9375 32.6927 25.2096 32.1484 25.7539C31.6328 26.2695 31.375 26.9141 31.375 27.6875C31.375 28.4609 31.6328 29.1198 32.1484 29.6641C32.6927 30.1797 33.3516 30.4375 34.125 30.4375C34.8984 30.4375 35.543 30.1797 36.0586 29.6641C36.6029 29.1198 36.875 28.4609 36.875 27.6875C36.875 26.9141 36.6029 26.2695 36.0586 25.7539Z" fill="#FAFBFF"/>
</g>
<defs>
<clipPath id="clip0_32_23870">
<rect width="60" height="60" fill="white"/>
</clipPath>
</defs>
</svg>
